<mxfile host="app.diagrams.net" modified="2023-11-27T02:58:28.970Z" agent="Mozilla/5.0 (Macintosh; Intel Mac OS X 10_15_7) AppleWebKit/537.36 (KHTML, like Gecko) Chrome/119.0.0.0 Safari/537.36" version="22.1.4" etag="DJMv6ILPkbr8q6jslXNZ" type="github">
  <diagram name="第 1 页" id="uviOFS1yyCf44vtN9M3C">
    <mxGraphModel>
      <root>
        <mxCell id="0" />
        <mxCell id="1" parent="0" />
      </root>
    </mxGraphModel>
  </diagram>
</mxfile>
